<?xml version="1.0" encoding="UTF-8" standalone="yes"?><svg id="图层_1" xmlns="http://www.w3.org/2000/svg" xmlns:xlink="http://www.w3.org/1999/xlink" version="1.2" baseProfile="tiny" x="0" y="0" width="28" height="28" viewBox="0 0 28.35 28.35"><defs><linearGradient id="SVGID_1_" x1="0.458" y1="14.1748" x2="27.8906" y2="14.1748" spreadMethod="pad" gradientUnits="userSpaceOnUse"><stop offset="0" stop-color="#f0e6a1" stop-opacity="1"/><stop offset="1" stop-color="#927d34" stop-opacity="1"/></linearGradient></defs><defs/><defs/><defs/><defs/><path fill="#ffffff" fill-opacity="1" d="M 14.174 0.458 C 6.611 0.458 0.458 6.611 0.458 14.174 C 0.458 21.737 6.611 27.891 14.174 27.891 C 21.736 27.891 27.89 21.737 27.89 14.174 C 27.891 6.612 21.736 0.458 14.174 0.458 M 23.598 21.092 C 22.586 20.558 21.586 20.131 20.606 19.794 C 21.088 18.155 21.379 16.617 21.526 15.186 L 25.825 15.186 C 25.635 17.383 24.836 19.407 23.598 21.092 M 18.943 7.118 C 17.648 7.423 16.388 7.572 15.185 7.605 L 15.185 2.524 C 15.765 2.574 16.333 2.666 16.886 2.798 C 17.529 3.754 18.336 5.202 18.943 7.118 M 19.271 3.651 C 20.451 4.224 21.519 4.989 22.435 5.906 C 21.826 6.189 21.22 6.43 20.617 6.635 C 20.207 5.439 19.725 4.442 19.271 3.651 M 19.83 13.164 L 15.185 13.164 L 15.185 9.581 C 16.523 9.525 17.943 9.331 19.417 8.939 C 19.68 10.196 19.84 11.606 19.83 13.164 M 8.954 8.865 C 10.172 9.196 11.593 9.466 13.163 9.561 L 13.163 13.164 L 8.528 13.164 C 8.517 11.576 8.683 10.141 8.954 8.865 M 13.163 15.186 L 13.163 18.749 C 11.783 18.819 10.516 19.027 9.395 19.297 C 9.004 17.842 8.761 16.473 8.635 15.187 L 13.163 15.187 L 13.163 15.186 M 15.186 15.186 L 19.721 15.186 C 19.594 16.475 19.35 17.849 18.959 19.307 C 17.648 18.98 16.387 18.805 15.186 18.746 L 15.186 15.186 M 13.163 7.557 C 11.818 7.457 10.572 7.232 9.467 6.953 C 10.068 5.117 10.847 3.724 11.471 2.796 C 12.021 2.665 12.586 2.574 13.162 2.524 L 13.162 7.557 L 13.163 7.557 M 7.799 6.463 C 7.121 6.236 6.527 6.002 6.034 5.788 C 6.927 4.921 7.957 4.194 9.089 3.645 C 8.656 4.399 8.197 5.34 7.799 6.463 M 7.25 8.324 C 6.913 9.733 6.699 11.349 6.718 13.164 L 2.524 13.164 C 2.714 10.951 3.524 8.913 4.777 7.223 C 5.24 7.475 6.091 7.901 7.25 8.324 M 6.832 15.186 C 6.978 16.609 7.267 18.137 7.742 19.764 C 6.335 20.224 5.287 20.728 4.71 21.036 C 3.494 19.364 2.711 17.358 2.523 15.185 L 6.832 15.185 L 6.832 15.186 M 8.354 21.624 C 8.752 22.717 9.232 23.85 9.808 25.021 C 8.358 24.436 7.052 23.569 5.957 22.487 C 6.605 22.211 7.415 21.904 8.354 21.624 M 9.979 21.203 C 10.955 20.989 12.023 20.822 13.163 20.749 L 13.163 25.825 C 12.723 25.787 12.29 25.724 11.866 25.639 C 11.083 24.092 10.463 22.612 9.979 21.203 M 15.186 20.72 C 16.223 20.758 17.301 20.881 18.407 21.12 C 17.921 22.552 17.29 24.059 16.493 25.638 C 16.065 25.725 15.63 25.787 15.186 25.826 L 15.186 20.72 M 20.031 21.548 C 20.814 21.794 21.605 22.1 22.402 22.477 C 21.308 23.562 20.002 24.431 18.55 25.019 C 19.139 23.819 19.629 22.664 20.031 21.548 M 21.639 13.164 C 21.659 11.383 21.453 9.793 21.125 8.403 C 21.949 8.104 22.785 7.74 23.629 7.303 C 24.85 8.977 25.637 10.986 25.824 13.164 L 21.639 13.164"/></svg>
